<svg width="39" height="37" viewBox="0 0 39 37" fill="none" xmlns="http://www.w3.org/2000/svg">
<path d="M32.586 8.276C32.682 8.372 32.778 8.468 32.874 8.564C33.138 8.756 33.414 8.912 33.702 9.032C34.11 9.224 34.506 9.32 34.89 9.32C35.418 9.32 35.856 9.176 36.204 8.888C36.552 8.6 36.726 8.24 36.726 7.808C36.726 7.28 36.522 6.884 36.114 6.62C35.706 6.356 35.19 6.224 34.566 6.224H33.846L33.45 5.288L35.286 3.056L36.042 2.3H32.082V0.716005H38.31V1.868L35.826 4.748C36.594 4.868 37.23 5.168 37.734 5.648C38.31 6.2 38.598 6.896 38.598 7.736C38.598 8.648 38.286 9.416 37.662 10.04C36.99 10.736 36.114 11.084 35.034 11.084C34.386 11.084 33.774 10.964 33.198 10.724C32.766 10.556 32.382 10.34 32.046 10.076L31.65 9.716L32.586 8.276ZM20.454 10.436L28.662 25.088L32.73 17.852L24.954 4.028H15.954L12.21 10.688L8.46602 4.028H0.330017L12.138 25.088L12.21 24.98L12.246 25.088L20.454 10.436ZM0.402017 34.988H1.62602C1.62602 35.18 1.69802 35.342 1.84202 35.474C1.98602 35.606 2.18402 35.672 2.43602 35.672C2.68802 35.672 2.89802 35.618 3.06602 35.51C3.23402 35.402 3.31802 35.264 3.31802 35.096C3.31802 34.832 3.11402 34.664 2.70602 34.592L2.02202 34.412C1.03802 34.172 0.546017 33.644 0.546017 32.828C0.546017 32.42 0.732017 32.06 1.10402 31.748C1.47602 31.436 1.92602 31.28 2.45402 31.28C2.98202 31.28 3.42602 31.4 3.78602 31.64C4.21802 31.952 4.43402 32.372 4.43402 32.9H3.21002C3.21002 32.732 3.14402 32.594 3.01202 32.486C2.88002 32.378 2.71802 32.324 2.52602 32.324C2.33402 32.324 2.17202 32.378 2.04002 32.486C1.90802 32.594 1.84202 32.732 1.84202 32.9C1.84202 33.116 2.02202 33.272 2.38202 33.368L3.21002 33.584C4.12202 33.824 4.57802 34.328 4.57802 35.096C4.57802 35.6 4.36802 35.996 3.94802 36.284C3.52802 36.572 3.04202 36.716 2.49002 36.716C1.93802 36.716 1.45802 36.56 1.05002 36.248C0.642017 35.936 0.426017 35.516 0.402017 34.988ZM5.65802 34.016C5.65802 33.2 5.93402 32.54 6.48602 32.036C7.03802 31.532 7.69802 31.28 8.46602 31.28H8.50202C8.91002 31.28 9.29402 31.37 9.65402 31.55C10.014 31.73 10.314 31.976 10.554 32.288L9.65402 33.008C9.34202 32.648 8.95802 32.468 8.50202 32.468C8.04602 32.468 7.67402 32.612 7.38602 32.9C7.09802 33.188 6.95402 33.56 6.95402 34.016C6.95402 34.472 7.09802 34.838 7.38602 35.114C7.67402 35.39 8.04602 35.528 8.50202 35.528C8.95802 35.528 9.34202 35.348 9.65402 34.988L10.554 35.708C10.314 36.02 10.014 36.266 9.65402 36.446C9.29402 36.626 8.91002 36.716 8.50202 36.716H8.46602C7.69802 36.716 7.03802 36.464 6.48602 35.96C5.93402 35.456 5.65802 34.808 5.65802 34.016ZM16.746 33.692V36.572H15.45V33.764C15.45 33.356 15.348 33.044 15.144 32.828C14.94 32.612 14.676 32.504 14.352 32.504C14.028 32.504 13.746 32.6 13.506 32.792C13.218 33.056 13.074 33.416 13.074 33.872V36.572H11.778V28.616H13.074V32.216C13.194 31.928 13.422 31.688 13.758 31.496C14.07 31.352 14.37 31.28 14.658 31.28C15.33 31.28 15.846 31.49 16.206 31.91C16.566 32.33 16.746 32.924 16.746 33.692ZM18.078 34.016C18.078 33.224 18.348 32.57 18.888 32.054C19.428 31.538 20.07 31.28 20.814 31.28C21.558 31.28 22.206 31.538 22.758 32.054C23.31 32.57 23.586 33.224 23.586 34.016C23.586 34.808 23.316 35.456 22.776 35.96C22.236 36.464 21.582 36.716 20.814 36.716C20.046 36.716 19.398 36.464 18.87 35.96C18.342 35.456 18.078 34.808 18.078 34.016ZM22.29 34.016C22.29 33.56 22.146 33.188 21.858 32.9C21.57 32.612 21.222 32.468 20.814 32.468C20.406 32.468 20.064 32.612 19.788 32.9C19.512 33.188 19.374 33.554 19.374 33.998C19.374 34.442 19.512 34.808 19.788 35.096C20.064 35.384 20.406 35.528 20.814 35.528C21.222 35.528 21.57 35.384 21.858 35.096C22.146 34.808 22.29 34.448 22.29 34.016ZM24.666 34.016C24.666 33.224 24.936 32.57 25.476 32.054C26.016 31.538 26.658 31.28 27.402 31.28C28.146 31.28 28.794 31.538 29.346 32.054C29.898 32.57 30.174 33.224 30.174 34.016C30.174 34.808 29.904 35.456 29.364 35.96C28.824 36.464 28.17 36.716 27.402 36.716C26.634 36.716 25.986 36.464 25.458 35.96C24.93 35.456 24.666 34.808 24.666 34.016ZM28.878 34.016C28.878 33.56 28.734 33.188 28.446 32.9C28.158 32.612 27.81 32.468 27.402 32.468C26.994 32.468 26.652 32.612 26.376 32.9C26.1 33.188 25.962 33.554 25.962 33.998C25.962 34.442 26.1 34.808 26.376 35.096C26.652 35.384 26.994 35.528 27.402 35.528C27.81 35.528 28.158 35.384 28.446 35.096C28.734 34.808 28.878 34.448 28.878 34.016ZM31.614 36.572V28.616H32.874V36.572H31.614ZM34.278 34.988H35.502C35.502 35.18 35.574 35.342 35.718 35.474C35.862 35.606 36.06 35.672 36.312 35.672C36.564 35.672 36.768 35.618 36.924 35.51C37.08 35.402 37.158 35.264 37.158 35.096C37.158 34.832 36.966 34.664 36.582 34.592L35.898 34.412C34.914 34.172 34.422 33.644 34.422 32.828C34.422 32.42 34.602 32.06 34.962 31.748C35.322 31.436 35.772 31.28 36.312 31.28C36.852 31.28 37.302 31.4 37.662 31.64C38.094 31.952 38.298 32.372 38.274 32.9H37.05C37.05 32.732 36.984 32.594 36.852 32.486C36.72 32.378 36.558 32.324 36.366 32.324C36.174 32.324 36.012 32.378 35.88 32.486C35.748 32.594 35.682 32.732 35.682 32.9C35.682 33.116 35.874 33.272 36.258 33.368L37.086 33.584C37.59 33.728 37.962 33.956 38.202 34.268C38.37 34.508 38.454 34.784 38.454 35.096C38.454 35.6 38.244 35.996 37.824 36.284C37.404 36.572 36.918 36.716 36.366 36.716C35.814 36.716 35.334 36.56 34.926 36.248C34.518 35.936 34.302 35.516 34.278 34.988Z" fill="#04AA6D"/>
</svg>
